<svg version="1.0" xmlns="http://www.w3.org/2000/svg"
 width="609.000000pt" height="176.000000pt" viewBox="0 0 609.000000 176.000000"
 preserveAspectRatio="xMidYMid meet">

<g transform="translate(0.000000,176.000000) scale(0.100000,-0.100000)"
fill="currentColor" stroke="none">
<path d="M1067 1443 c-4 -3 -7 -35 -7 -70 0 -49 3 -63 15 -63 12 0 15 14 15
70 0 64 -6 81 -23 63z"/>
<path d="M900 1380 c0 -19 55 -110 67 -110 23 0 21 16 -9 68 -26 46 -58 69
-58 42z"/>
<path d="M1198 1341 c-31 -55 -34 -71 -14 -71 15 0 77 100 69 113 -11 18 -30
3 -55 -42z"/>
<path d="M2026 1245 c-111 -40 -149 -171 -72 -249 34 -33 57 -43 184 -76 102
-27 142 -60 142 -115 0 -83 -54 -128 -155 -128 -91 0 -135 28 -160 100 -10 29
-19 39 -39 41 -22 3 -26 -1 -26 -23 0 -31 30 -93 57 -117 52 -48 194 -65 271
-32 79 33 121 104 107 185 -13 78 -62 112 -215 149 -115 28 -150 56 -150 118
0 76 63 118 167 110 67 -6 104 -32 121 -86 11 -34 19 -42 38 -42 27 0 31 20
13 67 -35 93 -168 139 -283 98z"/>
<path d="M1050 1243 c-35 -13 -60 -47 -60 -82 1 -101 136 -125 169 -30 15 43
-4 88 -45 105 -36 15 -41 15 -64 7z"/>
<path d="M3900 940 l0 -300 138 0 c169 0 229 15 267 64 60 78 36 206 -44 242
l-41 18 30 14 c59 29 79 131 37 193 -39 59 -73 69 -239 69 l-148 0 0 -300z
m307 237 c38 -20 54 -64 42 -117 -14 -64 -56 -80 -205 -80 l-94 0 0 111 0 112
113 -5 c79 -3 122 -9 144 -21z m-5 -257 c52 -15 78 -52 78 -110 0 -94 -47
-120 -222 -120 l-108 0 0 120 0 120 108 0 c59 0 124 -5 144 -10z"/>
<path d="M4460 940 c0 -293 0 -300 20 -300 20 0 20 7 20 300 0 293 0 300 -20
300 -20 0 -20 -7 -20 -300z"/>
<path d="M823 1154 c-17 -26 -16 -28 64 -183 l81 -156 16 -145 c9 -80 21 -194
27 -255 6 -60 16 -116 21 -122 13 -16 84 -17 93 -2 4 6 16 104 28 219 l20 208
28 6 c20 4 30 13 35 32 9 34 -20 240 -36 259 -10 12 -38 15 -126 15 l-114 0
-34 69 c-44 87 -72 102 -103 55z"/>
<path d="M2585 1083 c-11 -3 -37 -18 -57 -34 l-38 -30 0 31 c0 25 -4 30 -25
30 l-25 0 0 -220 0 -220 24 0 25 0 3 166 3 166 37 34 c33 29 45 34 89 34 43 0
55 -5 80 -29 l29 -29 0 -171 0 -171 26 0 25 0 -3 184 -3 185 -29 30 c-40 42
-100 58 -161 44z"/>
<path d="M3006 1076 c-49 -18 -83 -52 -95 -94 -9 -31 -9 -32 20 -32 22 0 29 5
29 19 0 11 14 31 32 46 29 25 38 27 96 23 75 -5 102 -27 102 -84 0 -42 -13
-49 -115 -63 -110 -16 -166 -45 -183 -95 -17 -52 -1 -108 37 -136 60 -42 170
-35 229 15 l28 24 11 -30 c10 -26 16 -29 52 -29 34 0 41 3 41 19 0 13 -8 21
-22 23 -23 3 -23 6 -28 163 -3 103 -10 168 -18 182 -29 51 -142 76 -216 49z
m172 -323 c-28 -57 -112 -91 -180 -72 -40 10 -58 33 -58 73 0 61 30 80 150 95
46 6 86 14 89 17 12 12 12 -87 -1 -113z"/>
<path d="M3520 1074 c-19 -8 -47 -27 -62 -41 l-28 -27 0 37 c0 33 -3 37 -25
37 l-25 0 0 -305 0 -305 25 0 25 0 0 117 0 116 23 -21 c81 -76 222 -64 281 25
65 99 54 267 -22 336 -48 43 -132 57 -192 31z m146 -65 c41 -38 56 -78 57
-144 1 -76 -31 -148 -75 -171 -41 -21 -101 -20 -140 3 -100 57 -104 262 -6
323 46 29 127 23 164 -11z"/>
<path d="M4753 1081 c-47 -12 -80 -36 -110 -82 -35 -53 -45 -176 -19 -244 32
-83 116 -133 208 -122 66 8 112 39 146 95 24 41 27 57 27 133 0 78 -3 90 -30
134 -17 28 -45 56 -65 67 -43 21 -113 30 -157 19z m133 -60 c44 -27 68 -83 68
-161 0 -116 -54 -182 -150 -182 -58 0 -91 23 -122 83 -19 36 -23 55 -19 109 5
78 26 124 70 150 41 26 112 26 153 1z"/>
<path d="M5216 1075 c-55 -19 -94 -61 -111 -119 -51 -169 36 -327 180 -326 49
0 117 30 139 61 l16 23 0 -34 c0 -57 -18 -104 -51 -136 -28 -27 -36 -29 -106
-29 -75 0 -76 0 -108 38 -37 43 -81 52 -70 15 20 -64 86 -99 186 -99 89 0 140
25 171 84 22 40 23 55 26 285 l4 242 -26 0 c-24 0 -26 -4 -26 -39 l0 -39 -33
33 c-31 31 -89 55 -132 55 -11 -1 -37 -7 -59 -15z m150 -54 c96 -59 93 -268
-5 -325 -69 -40 -157 -14 -195 59 -31 59 -30 166 2 218 13 20 36 44 50 52 38
20 111 19 148 -4z"/>
<path d="M737 1013 c-13 -12 -7 -60 8 -73 8 -7 25 -10 40 -6 29 7 44 49 25 71
-13 15 -61 21 -73 8z"/>
<path d="M1331 998 c-15 -41 14 -74 54 -64 29 7 43 49 25 71 -20 24 -69 19
-79 -7z"/>
<path d="M560 975 c-26 -32 13 -81 48 -59 34 22 22 74 -18 74 -10 0 -23 -7
-30 -15z"/>
<path d="M1522 978 c-29 -29 -3 -72 40 -66 19 2 23 9 23 38 0 30 -4 35 -25 38
-14 2 -31 -3 -38 -10z"/>
<path d="M706 902 c-3 -5 -10 -44 -15 -88 -10 -74 -9 -80 10 -96 16 -14 23
-38 31 -113 12 -94 12 -95 39 -95 30 0 33 9 45 132 5 55 10 67 27 72 18 4 19
10 13 83 -11 118 -7 113 -81 113 -35 0 -66 -4 -69 -8z"/>
<path d="M1306 902 c-9 -14 -25 -164 -19 -178 3 -8 11 -14 18 -14 14 0 20 -28
31 -132 6 -66 7 -68 34 -68 31 0 33 6 46 132 5 55 10 67 26 71 19 5 20 11 14
84 -11 118 -7 113 -81 113 -35 0 -66 -4 -69 -8z"/>
<path d="M526 868 c-3 -13 -8 -48 -11 -80 -5 -48 -4 -58 12 -66 14 -8 20 -31
28 -94 10 -79 11 -83 35 -83 24 0 25 4 35 83 8 63 14 86 28 94 18 10 18 23 1
136 -5 32 -5 32 -64 32 -54 0 -60 -2 -64 -22z"/>
<path d="M1486 844 c-10 -79 -8 -124 8 -124 10 0 16 -19 21 -62 11 -108 14
-118 40 -118 21 0 24 6 30 63 10 97 15 117 32 117 13 0 14 11 8 78 -4 42 -9
80 -12 85 -2 4 -30 7 -62 7 l-58 0 -7 -46z"/>
</g>
</svg>
